# xmcd
#
# Track frame offsets:
#	150
#	15212
#	28644
#	46645
#	60410
#	73565
#	87307
#	100065
#	113707
#	126412
#	139825
#	154472
#
# Disc length: 2244 seconds
#
# Revision: 0
# Processed by: cddbd v1.4PL0 Copyright (c) Steve Scherf et al.
# Submitted via: audiograbber 1.81.00
#
DISCID=9408c20c
DTITLE=GIGLIOLA CINQUETTI - NON HO L'ETà' PER AMARTI
DYEAR=1900
DGENRE=POP
TTITLE0=NON HO L'ETà' PER AMARTI
TTITLE1=HO BISOGNO DI VEDERTI
TTITLE2=LA POHENE
TTITLE3=LA PIOGGIA
TTITLE4=PICCOLA CITà'
TTITLE5=PENSO ALLE COSE PERDUTE
TTITLE6=GIRA L'AMORE (CARO BEBè')
TTITLE7=QUANDO M'INNAMORO
TTITLE8=QUI COMANDO IO
TTITLE9=IL PRIMO BACIO CHE DARò'
TTITLE10=LE COLLINE SONO IN FIORE
TTITLE11=QUANDO VEDO CHE TUTTI MI AMANO
EXTD=
EXTT0=
EXTT1=
EXTT2=
EXTT3=
EXTT4=
EXTT5=
EXTT6=
EXTT7=
EXTT8=
EXTT9=
EXTT10=
EXTT11=
PLAYORDER=
